# xmcd CD database file
# Copyright (C) 1995-1998 Ti Kan
#
# Track frame offsets:
#	150
#	10545
#	31785
#	46620
#	61067
#	73160
#	86477
#	104000
#	121547
#	134622
#	145195
#
# Disc length: 2168 seconds
#
# Revision: 1
# Processed by: cddbd v1.4b41PL1 Copyright (c) Steve Scherf et al.
# Submitted via: CDex 1.30
#
DISCID=8708760b
DTITLE=Jessica - I Love You Honey
DYEAR=1998
DGENRE=Country
TTITLE0=I Love You Honey
TTITLE1=If I'm Not Already Crazy
TTITLE2=Reunion
TTITLE3=One Step Ahead
TTITLE4=Losing You
TTITLE5=Nobody Loves You Like I Do
TTITLE6=Green With Envy
TTITLE7=Oh Atlanta
TTITLE8=How Could You
TTITLE9=Little Brother
TTITLE10=Turnin' Up The Sad Songs
EXTD=YEAR: 1998  ID3G:   2
EXTT0=
EXTT1=
EXTT2=
EXTT3=
EXTT4=
EXTT5=
EXTT6=
EXTT7=
EXTT8=
EXTT9=
EXTT10=
PLAYORDER=
